ffmpeg started on 2025-06-19 at 12:11:13
Report written to "D:\Convert\FFMetrics\reports\ssim_report-6.txt"
Log level: 32
Command line:
ffmpeg -hide_banner -nostdin -i "G:\\\xc0\xed\xe8\xec\xe5\\[\xd2\xee\xef-4]\\Fate\\\xc0\xef\xee\xea\xf0\xe8\xf4\\Fate_Apocrypha_[24]_[AniLibria_TV]_[HDTVRip_720p]_HEVC.mkv" -i "G:\\\xc0\xed\xe8\xec\xe5\\[\xd2\xee\xef-4]\\Fate\\\xc0\xef\xee\xea\xf0\xe8\xf4\\Fate_Apocrypha_[24]_[AniLibria_TV]_[HDTVRip_720p].mkv" -lavfi "[0:v]settb=AVTB,setpts=PTS-STARTPTS,format=pix_fmts=yuv420p10,fps=24000/1001,scale=1280:720:flags=bicubic[main];[1:v]settb=AVTB,setpts=PTS-STARTPTS,format=pix_fmts=yuv420p,fps=24000/1001,scale=1280:720:flags=bicubic[ref];[main][ref]ssim=eof_action=endall:stats_file='D\\:/Convert/FFMetrics/logs/ssim_logfile-6.txt'" -f null -
Input #0, matroska,webm, from 'G:\Аниме\[Топ-4]\Fate\Апокриф\Fate_Apocrypha_[24]_[AniLibria_TV]_[HDTVRip_720p]_HEVC.mkv':
  Metadata:
    ENCODER         : Lavf61.7.100
  Duration: 00:24:00.17, start: -0.021000, bitrate: 765 kb/s
  Stream #0:0(jpn): Video: hevc (Main 10), yuv420p10le(tv, bt709, progressive), 1280x720 [SAR 1:1 DAR 16:9], 23.81 fps, 23.81 tbr, 1k tbn (default)
      Metadata:
        ENCODER         : Lavc61.19.100 libx265
        BPS             : 567641
        DURATION        : 00:24:00.054000000
        NUMBER_OF_FRAMES: 34526
        NUMBER_OF_BYTES : 102179294
        _STATISTICS_WRITING_APP: mkvpropedit v66.0.0 ('Josie') 64-bit
        _STATISTICS_WRITING_DATE_UTC: 2025-06-17 07:58:47
        _STATISTICS_TAGS: BPS DURATION NUMBER_OF_FRAMES NUMBER_OF_BYTES
  Stream #0:1(rus): Audio: aac (LC), 48000 Hz, stereo, fltp (default)
      Metadata:
        title           : Ados Amikiri Anzen Hekomi Silv
        ENCODER         : Lavc61.19.100 aac
        BPS             : 194051
        DURATION        : 00:24:00.149000000
        NUMBER_OF_FRAMES: 67508
        NUMBER_OF_BYTES : 34932800
        _STATISTICS_WRITING_APP: mkvpropedit v66.0.0 ('Josie') 64-bit
        _STATISTICS_WRITING_DATE_UTC: 2025-06-17 07:58:47
        _STATISTICS_TAGS: BPS DURATION NUMBER_OF_FRAMES NUMBER_OF_BYTES
  Stream #0:2(rus): Subtitle: ass (ssa) (default) (forced)
      Metadata:
        title           : Надписи
        BPS             : 517
        DURATION        : 00:00:03.000000000
        NUMBER_OF_FRAMES: 2
        NUMBER_OF_BYTES : 194
        _STATISTICS_WRITING_APP: mkvpropedit v66.0.0 ('Josie') 64-bit
        _STATISTICS_WRITING_DATE_UTC: 2025-06-17 07:58:47
        _STATISTICS_TAGS: BPS DURATION NUMBER_OF_FRAMES NUMBER_OF_BYTES
  Stream #0:3(rus): Subtitle: ass (ssa)
      Metadata:
        title           : Полные
        BPS             : 136
        DURATION        : 00:22:13.550000000
        NUMBER_OF_FRAMES: 289
        NUMBER_OF_BYTES : 22699
        _STATISTICS_WRITING_APP: mkvpropedit v66.0.0 ('Josie') 64-bit
        _STATISTICS_WRITING_DATE_UTC: 2025-06-17 07:58:47
        _STATISTICS_TAGS: BPS DURATION NUMBER_OF_FRAMES NUMBER_OF_BYTES
Input #1, matroska,webm, from 'G:\Аниме\[Топ-4]\Fate\Апокриф\Fate_Apocrypha_[24]_[AniLibria_TV]_[HDTVRip_720p].mkv':
  Metadata:
    encoder         : libebml v1.3.0 + libmatroska v1.4.1
    creation_time   : 2017-12-26T19:15:48.000000Z
  Duration: 00:24:00.15, start: 0.000000, bitrate: 2231 kb/s
  Stream #1:0: Video: h264 (Main), yuv420p(tv, bt709, progressive), 1280x720, SAR 1:1 DAR 16:9, 23.81 fps, 23.81 tbr, 1k tbn (default)
      Metadata:
        BPS             : 1819012
        BPS-eng         : 1819012
        DURATION        : 00:24:00.048000000
        DURATION-eng    : 00:24:00.048000000
        NUMBER_OF_FRAMES: 34526
        NUMBER_OF_FRAMES-eng: 34526
        NUMBER_OF_BYTES : 327433135
        NUMBER_OF_BYTES-eng: 327433135
        _STATISTICS_WRITING_APP: mkvmerge v7.3.0 ('Nouages') 64bit built on Oct 22 2014 18:53:34
        _STATISTICS_WRITING_APP-eng: mkvmerge v7.3.0 ('Nouages') 64bit built on Oct 22 2014 18:53:34
        _STATISTICS_WRITING_DATE_UTC: 2017-12-26 19:15:48
        _STATISTICS_WRITING_DATE_UTC-eng: 2017-12-26 19:15:48
        _STATISTICS_TAGS: BPS DURATION NUMBER_OF_FRAMES NUMBER_OF_BYTES
        _STATISTICS_TAGS-eng: BPS DURATION NUMBER_OF_FRAMES NUMBER_OF_BYTES
  Stream #1:1(rus): Audio: aac (LC), 48000 Hz, stereo, fltp (default)
      Metadata:
        title           : Ados Amikiri Anzen Hekomi Silv
        BPS             : 192091
        BPS-eng         : 192091
        DURATION        : 00:24:00.149000000
        DURATION-eng    : 00:24:00.149000000
        NUMBER_OF_FRAMES: 67507
        NUMBER_OF_FRAMES-eng: 67507
        NUMBER_OF_BYTES : 34580096
        NUMBER_OF_BYTES-eng: 34580096
        _STATISTICS_WRITING_APP: mkvmerge v7.3.0 ('Nouages') 64bit built on Oct 22 2014 18:53:34
        _STATISTICS_WRITING_APP-eng: mkvmerge v7.3.0 ('Nouages') 64bit built on Oct 22 2014 18:53:34
        _STATISTICS_WRITING_DATE_UTC: 2017-12-26 19:15:48
        _STATISTICS_WRITING_DATE_UTC-eng: 2017-12-26 19:15:48
        _STATISTICS_TAGS: BPS DURATION NUMBER_OF_FRAMES NUMBER_OF_BYTES
        _STATISTICS_TAGS-eng: BPS DURATION NUMBER_OF_FRAMES NUMBER_OF_BYTES
  Stream #1:2(jpn): Audio: aac (LC), 48000 Hz, stereo, fltp
      Metadata:
        title           : Оригинал
        BPS             : 214954
        BPS-eng         : 214954
        DURATION        : 00:24:00.106000000
        DURATION-eng    : 00:24:00.106000000
        NUMBER_OF_FRAMES: 67505
        NUMBER_OF_FRAMES-eng: 67505
        NUMBER_OF_BYTES : 38694597
        NUMBER_OF_BYTES-eng: 38694597
        _STATISTICS_WRITING_APP: mkvmerge v7.3.0 ('Nouages') 64bit built on Oct 22 2014 18:53:34
        _STATISTICS_WRITING_APP-eng: mkvmerge v7.3.0 ('Nouages') 64bit built on Oct 22 2014 18:53:34
        _STATISTICS_WRITING_DATE_UTC: 2017-12-26 19:15:48
        _STATISTICS_WRITING_DATE_UTC-eng: 2017-12-26 19:15:48
        _STATISTICS_TAGS: BPS DURATION NUMBER_OF_FRAMES NUMBER_OF_BYTES
        _STATISTICS_TAGS-eng: BPS DURATION NUMBER_OF_FRAMES NUMBER_OF_BYTES
  Stream #1:3(rus): Subtitle: ass (ssa) (default) (forced)
      Metadata:
        title           : Надписи
        BPS             : 517
        BPS-eng         : 517
        DURATION        : 00:00:03.000000000
        DURATION-eng    : 00:00:03.000000000
        NUMBER_OF_FRAMES: 2
        NUMBER_OF_FRAMES-eng: 2
        NUMBER_OF_BYTES : 194
        NUMBER_OF_BYTES-eng: 194
        _STATISTICS_WRITING_APP: mkvmerge v7.3.0 ('Nouages') 64bit built on Oct 22 2014 18:53:34
        _STATISTICS_WRITING_APP-eng: mkvmerge v7.3.0 ('Nouages') 64bit built on Oct 22 2014 18:53:34
        _STATISTICS_WRITING_DATE_UTC: 2017-12-26 19:15:48
        _STATISTICS_WRITING_DATE_UTC-eng: 2017-12-26 19:15:48
        _STATISTICS_TAGS: BPS DURATION NUMBER_OF_FRAMES NUMBER_OF_BYTES
        _STATISTICS_TAGS-eng: BPS DURATION NUMBER_OF_FRAMES NUMBER_OF_BYTES
  Stream #1:4(rus): Subtitle: ass (ssa)
      Metadata:
        title           : Полные
        BPS             : 136
        BPS-eng         : 136
        DURATION        : 00:22:13.550000000
        DURATION-eng    : 00:22:13.550000000
        NUMBER_OF_FRAMES: 289
        NUMBER_OF_FRAMES-eng: 289
        NUMBER_OF_BYTES : 22699
        NUMBER_OF_BYTES-eng: 22699
        _STATISTICS_WRITING_APP: mkvmerge v7.3.0 ('Nouages') 64bit built on Oct 22 2014 18:53:34
        _STATISTICS_WRITING_APP-eng: mkvmerge v7.3.0 ('Nouages') 64bit built on Oct 22 2014 18:53:34
        _STATISTICS_WRITING_DATE_UTC: 2017-12-26 19:15:48
        _STATISTICS_WRITING_DATE_UTC-eng: 2017-12-26 19:15:48
        _STATISTICS_TAGS: BPS DURATION NUMBER_OF_FRAMES NUMBER_OF_BYTES
        _STATISTICS_TAGS-eng: BPS DURATION NUMBER_OF_FRAMES NUMBER_OF_BYTES
  Stream #1:5: Attachment: ttf
      Metadata:
        filename        : ALBR.ttf
        mimetype        : application/x-truetype-font
  Stream #1:6: Attachment: ttf
      Metadata:
        filename        : 9511(1).ttf
        mimetype        : application/x-truetype-font
Stream mapping:
  Stream #0:0 (hevc) -> settb:default
  Stream #1:0 (h264) -> settb:default
  ssim:default -> Stream #0:0 (wrapped_avframe)
  Stream #0:1 -> #0:1 (aac (native) -> pcm_s16le (native))
Output #0, null, to 'pipe:':
  Metadata:
    encoder         : Lavf61.7.100
  Stream #0:0: Video: wrapped_avframe, yuv420p10le(tv, bt709, progressive), 1280x720 [SAR 1:1 DAR 16:9], q=2-31, 200 kb/s, 23.98 fps, 23.98 tbn
      Metadata:
        encoder         : Lavc61.19.100 wrapped_avframe
  Stream #0:1(rus): Audio: pcm_s16le, 48000 Hz, stereo, s16, 1536 kb/s (default)
      Metadata:
        title           : Ados Amikiri Anzen Hekomi Silv
        _STATISTICS_TAGS: BPS DURATION NUMBER_OF_FRAMES NUMBER_OF_BYTES
        BPS             : 194051
        DURATION        : 00:24:00.149000000
        NUMBER_OF_FRAMES: 67508
        NUMBER_OF_BYTES : 34932800
        _STATISTICS_WRITING_APP: mkvpropedit v66.0.0 ('Josie') 64-bit
        _STATISTICS_WRITING_DATE_UTC: 2025-06-17 07:58:47
        encoder         : Lavc61.19.100 pcm_s16le
frame=  452 fps=0.0 q=-0.0 size=N/A time=00:00:18.85 bitrate=N/A speed=36.4x    frame=  981 fps=953 q=-0.0 size=N/A time=00:00:40.91 bitrate=N/A speed=39.8x    frame= 1489 fps=968 q=-0.0 size=N/A time=00:01:02.10 bitrate=N/A speed=40.4x    frame= 1981 fps=960 q=-0.0 size=N/A time=00:01:22.62 bitrate=N/A speed=  40x    frame= 2486 fps=966 q=-0.0 size=N/A time=00:01:43.68 bitrate=N/A speed=40.3x    frame= 2847 fps=919 q=-0.0 size=N/A time=00:01:58.74 bitrate=N/A speed=38.3x    frame= 3278 fps=909 q=-0.0 size=N/A time=00:02:16.71 bitrate=N/A speed=37.9x    frame= 3666 fps=890 q=-0.0 size=N/A time=00:02:32.90 bitrate=N/A speed=37.1x    frame= 4089 fps=881 q=-0.0 size=N/A time=00:02:50.54 bitrate=N/A speed=36.8x    frame= 4456 fps=865 q=-0.0 size=N/A time=00:03:05.85 bitrate=N/A speed=36.1x    frame= 4964 fps=875 q=-0.0 size=N/A time=00:03:27.04 bitrate=N/A speed=36.5x    frame= 5412 fps=875 q=-0.0 size=N/A time=00:03:45.72 bitrate=N/A speed=36.5x    frame= 5938 fps=887 q=-0.0 size=N/A time=00:04:07.66 bitrate=N/A speed=  37x    frame= 6523 fps=903 q=-0.0 size=N/A time=00:04:32.06 bitrate=N/A speed=37.7x    frame= 7151 fps=925 q=-0.0 size=N/A time=00:04:58.25 bitrate=N/A speed=38.6x    frame= 7813 fps=948 q=-0.0 size=N/A time=00:05:25.86 bitrate=N/A speed=39.5x    frame= 8439 fps=962 q=-0.0 size=N/A time=00:05:51.97 bitrate=N/A speed=40.1x    frame= 9028 fps=973 q=-0.0 size=N/A time=00:06:16.54 bitrate=N/A speed=40.6x    frame= 9626 fps=983 q=-0.0 size=N/A time=00:06:41.48 bitrate=N/A speed=  41x    frame=10145 fps=984 q=-0.0 size=N/A time=00:07:03.13 bitrate=N/A speed=  41x    frame=10620 fps=981 q=-0.0 size=N/A time=00:07:22.94 bitrate=N/A speed=40.9x    frame=11258 fps=992 q=-0.0 size=N/A time=00:07:49.55 bitrate=N/A speed=41.4x    frame=11920 fps=1005 q=-0.0 size=N/A time=00:08:17.16 bitrate=N/A speed=41.9x    frame=12507 fps=1011 q=-0.0 size=N/A time=00:08:41.64 bitrate=N/A speed=42.2x    frame=13060 fps=1014 q=-0.0 size=N/A time=00:09:04.71 bitrate=N/A speed=42.3x    frame=13685 fps=1020 q=-0.0 size=N/A time=00:09:30.77 bitrate=N/A speed=42.6x    frame=14349 fps=1031 q=-0.0 size=N/A time=00:09:58.47 bitrate=N/A speed=  43x    frame=14952 fps=1036 q=-0.0 size=N/A time=00:10:23.62 bitrate=N/A speed=43.2x    frame=15566 fps=1041 q=-0.0 size=N/A time=00:10:49.23 bitrate=N/A speed=43.4x    frame=16228 fps=1049 q=-0.0 size=N/A time=00:11:16.84 bitrate=N/A speed=43.8x    frame=16912 fps=1059 q=-0.0 size=N/A time=00:11:45.37 bitrate=N/A speed=44.2x    frame=17566 fps=1065 q=-0.0 size=N/A time=00:12:12.64 bitrate=N/A speed=44.4x    frame=18097 fps=1064 q=-0.0 size=N/A time=00:12:34.79 bitrate=N/A speed=44.4x    frame=18685 fps=1066 q=-0.0 size=N/A time=00:12:59.32 bitrate=N/A speed=44.5x    frame=19297 fps=1069 q=-0.0 size=N/A time=00:13:24.84 bitrate=N/A speed=44.6x    frame=19813 fps=1068 q=-0.0 size=N/A time=00:13:46.36 bitrate=N/A speed=44.5x    frame=20237 fps=1061 q=-0.0 size=N/A time=00:14:04.05 bitrate=N/A speed=44.2x    frame=20670 fps=1055 q=-0.0 size=N/A time=00:14:22.11 bitrate=N/A speed=  44x    frame=21044 fps=1047 q=-0.0 size=N/A time=00:14:37.71 bitrate=N/A speed=43.7x    frame=21461 fps=1040 q=-0.0 size=N/A time=00:14:55.10 bitrate=N/A speed=43.4x    frame=21868 fps=1034 q=-0.0 size=N/A time=00:15:12.07 bitrate=N/A speed=43.1x    frame=22251 fps=1028 q=-0.0 size=N/A time=00:15:28.05 bitrate=N/A speed=42.9x    frame=22617 fps=1020 q=-0.0 size=N/A time=00:15:43.31 bitrate=N/A speed=42.5x    frame=23049 fps=1016 q=-0.0 size=N/A time=00:16:01.33 bitrate=N/A speed=42.4x    frame=23323 fps=1006 q=-0.0 size=N/A time=00:16:12.76 bitrate=N/A speed=41.9x    frame=23611 fps=995 q=-0.0 size=N/A time=00:16:24.77 bitrate=N/A speed=41.5x    frame=24059 fps=993 q=-0.0 size=N/A time=00:16:43.46 bitrate=N/A speed=41.4x    frame=24535 fps=992 q=-0.0 size=N/A time=00:17:03.31 bitrate=N/A speed=41.4x    frame=25048 fps=992 q=-0.0 size=N/A time=00:17:24.71 bitrate=N/A speed=41.4x    frame=25495 fps=989 q=-0.0 size=N/A time=00:17:43.35 bitrate=N/A speed=41.2x    frame=25986 fps=988 q=-0.0 size=N/A time=00:18:03.83 bitrate=N/A speed=41.2x    frame=26450 fps=986 q=-0.0 size=N/A time=00:18:23.18 bitrate=N/A speed=41.1x    frame=26832 fps=982 q=-0.0 size=N/A time=00:18:39.11 bitrate=N/A speed=  41x    frame=27178 fps=976 q=-0.0 size=N/A time=00:18:53.54 bitrate=N/A speed=40.7x    frame=27592 fps=973 q=-0.0 size=N/A time=00:19:10.81 bitrate=N/A speed=40.6x    frame=27927 fps=967 q=-0.0 size=N/A time=00:19:24.78 bitrate=N/A speed=40.3x    frame=28290 fps=963 q=-0.0 size=N/A time=00:19:39.92 bitrate=N/A speed=40.2x    frame=28700 fps=960 q=-0.0 size=N/A time=00:19:57.02 bitrate=N/A speed=  40x    frame=29200 fps=960 q=-0.0 size=N/A time=00:20:17.88 bitrate=N/A speed=  40x    frame=29451 fps=952 q=-0.0 size=N/A time=00:20:28.35 bitrate=N/A speed=39.7x    frame=29846 fps=949 q=-0.0 size=N/A time=00:20:44.82 bitrate=N/A speed=39.6x    frame=30014 fps=939 q=-0.0 size=N/A time=00:20:51.83 bitrate=N/A speed=39.2x    frame=30292 fps=933 q=-0.0 size=N/A time=00:21:03.42 bitrate=N/A speed=38.9x    frame=30756 fps=932 q=-0.0 size=N/A time=00:21:22.78 bitrate=N/A speed=38.9x    frame=31095 fps=928 q=-0.0 size=N/A time=00:21:36.92 bitrate=N/A speed=38.7x    frame=31514 fps=926 q=-0.0 size=N/A time=00:21:54.39 bitrate=N/A speed=38.6x    frame=31946 fps=925 q=-0.0 size=N/A time=00:22:12.41 bitrate=N/A speed=38.6x    frame=32454 fps=926 q=-0.0 size=N/A time=00:22:33.60 bitrate=N/A speed=38.6x    frame=33107 fps=930 q=-0.0 size=N/A time=00:23:00.83 bitrate=N/A speed=38.8x    frame=33533 fps=929 q=-0.0 size=N/A time=00:23:18.60 bitrate=N/A speed=38.7x    frame=33990 fps=929 q=-0.0 size=N/A time=00:23:37.66 bitrate=N/A speed=38.7x    [Parsed_ssim_10 @ 000001aa55eaabc0] SSIM Y:0.985768 (18.467437) U:0.989934 (19.971511) V:0.991802 (20.862768) All:0.987468 (19.019863)
[out#0/null @ 000001aa49e58780] video:14836KiB audio:270032KiB subtitle:0KiB other streams:0KiB global headers:0KiB muxing overhead: unknown
frame=34527 fps=932 q=-0.0 Lsize=N/A time=00:24:00.06 bitrate=N/A speed=38.9x    
